<svg width="23" height="23" fill="none" xmlns="http://www.w3.org/2000/svg"><g clip-path="url(#clip0)" fill="#fff"><path d="M22.042 0h-5.75c-.575 0-.959.383-.959.958s.384.959.959.959h4.025l-5.271 5.27c-.288.288-.288.863 0 1.246.192.096.479.192.67.192.192 0 .48-.096.576-.287l4.791-4.792v3.162c0 .575.384.959.959.959S23 7.283 23 6.708V.958C23 .383 22.617 0 22.042 0z"/><path d="M19.167 21.946h-.288c-3.067-.384-6.133-1.438-8.72-3.067a20.152 20.152 0 01-6.038-6.037C2.396 10.254 1.34 7.187 1.054 4.12c0-.767.192-1.534.671-2.109A2.96 2.96 0 013.642.959h3.162c1.438 0 2.684 1.054 2.875 2.492a10.5 10.5 0 00.575 2.492c.383 1.054.096 2.204-.67 3.066l-.671.671c1.15 1.725 2.587 3.258 4.408 4.409l.67-.671c.767-.767 2.013-1.054 3.067-.671.767.287 1.63.479 2.492.575 1.438.191 2.492 1.437 2.492 2.875v2.875c0 .766-.288 1.533-.863 2.012-.575.48-1.246.863-2.012.863zM6.804 2.875H3.93c-.287 0-.575.192-.766.383-.096.192-.192.384-.192.671.287 2.78 1.246 5.463 2.779 7.858 1.438 2.205 3.258 4.121 5.463 5.463 2.395 1.533 5.079 2.492 7.858 2.78.383 0 .575-.097.766-.288.192-.192.288-.384.288-.671v-2.875c0-.48-.383-.863-.863-.959-.958-.095-1.916-.383-2.875-.766-.383-.096-.766-.096-1.054.191l-1.245 1.246a1.02 1.02 0 01-1.15.192 15.725 15.725 0 01-6.134-6.133c-.096-.384 0-.863.288-1.15L8.338 7.57c.191-.192.287-.671.191-.958-.383-.959-.575-1.917-.766-2.876 0-.479-.48-.862-.959-.862z"/></g><defs><clipPath id="clip0"><path fill="#fff" d="M0 0h23v23H0z"/></clipPath></defs></svg>